<?xml version="1.0" encoding="UTF-8"?>
<svg id="Calque_2" data-name="Calque 2" xmlns="http://www.w3.org/2000/svg" viewBox="0 0 788.94 788.94">
  <defs>
    <style>
      .cls-1 {
        fill: #121827;
      }

      .cls-1, .cls-2, .cls-3 {
        fill-rule: evenodd;
      }

      .cls-2 {
        fill: #fafbfc;
      }

      .cls-4 {
        fill: #1f2937;
      }

      .cls-3 {
        fill: #059488;
      }
    </style>
  </defs>
  <g id="Calque_1-2" data-name="Calque 1">
    <rect class="cls-4" width="788.94" height="788.94" rx="100.67" ry="100.67"/>
    <g>
      <path class="cls-1" d="M186.03,273.24c-13.4-1.28-32.39,29.06-56.98,91,0,0,87.23,54.38,261.7,163.13,0,0,.17-8.81.5-18.75,0,0-81.73-49.16-245.94-149.48,0,0,13.57-28.64,40.72-85.91h0ZM602.91,273.24c13.4-1.28,32.39,29.06,56.98,91,0,0-87.23,54.38-261.7,163.13,0,0-.17-8.81-.5-18.75,0,0,81.73-49.16,245.94-149.48,0,0-13.57-28.64-40.72-85.91h0Z"/>
      <path class="cls-2" d="M391.85,453.8c47.61-86.46,167.47-82.84,187.59-117.62,0,0-11.55-23.63-33.32-69.3-97.84,26.69-149.97,59.7-154.8,100.63-13.1-40.06-62.92-74.22-155.33-101.43-22.13,46.55-33.19,69.83-33.19,69.83,56.03,41.47,151.84,42.69,189.05,117.89h0ZM375.31,482.47l-213.47-126.92c15.27-29.82,28.77-72.98,60.48-85.45-9.7,20.41-19.4,40.83-29.11,61.23l-3.76,7.9,7.03,5.2c5.93,4.39,12.25,8.33,18.85,11.96,6.77,4.41,14.41,7.77,21.33,10.53.98.39,1.97.78,2.96,1.16,53.41,22.86,115.64,35.72,142.71,90.41l5.61,11.34-12.63,12.63h0ZM413.62,482.47l213.47-126.92c-16.55-32.32-31.01-80.3-68.85-87.91,10.17,21.32,20.37,42.64,30.73,63.87l2.48,5.08-.07.12.13.25c-.48.77-1.02,1.51-1.58,2.25l-1.31,2.27c-7.39,12.78-23.18,20.19-36.36,25.44-17.22,6.86-35.2,12.17-52.62,18.63-14.75,5.47-29.13,11.63-42.49,19.17-6.43,3.72-12.72,7.75-18.77,12.14-14.83,11.04-27.65,24.63-37.24,42.04l-3.94,7.15,16.4,16.4h0Z"/>
      <path class="cls-1" d="M490.93,518.34h0c2.98-4.25,8.9-5.28,13.14-2.3l34.81,24.46-4.25,8.17-4.54,8.71-36.86-25.9c-4.25-2.98-5.28-8.9-2.3-13.14h0ZM406.05,534.64c121.38,81.36,183.33,120.13,185.86,116.29,25.69-29.56-35.17-61.86-53.21-74.53l-51.58-36.23c-9.04-6.35-11.23-18.9-4.88-27.94,6.35-9.04,18.9-11.23,27.94-4.88l33.96,23.85c-2.65-4.4-7.43-13.69-14.35-27.9-6.55-2.86-18.59-9.58-36.11-20.18-58.41,34.34-87.62,51.51-87.62,51.51h0ZM382.88,534.64c-121.38,81.36-183.33,120.13-185.86,116.29-26.13-30.07,36.05-61.92,54.01-74.53l51.58-36.23c9.04-6.35,11.23-18.9,4.88-27.94-6.35-9.04-18.9-11.23-27.94-4.88l-35.36,24.84c2.48-3.88,7.47-13.51,14.96-28.88,6.55-2.86,18.59-9.58,36.11-20.18,58.41,34.34,87.62,51.51,87.62,51.51h0ZM298.8,518.34h0c-2.98-4.25-8.9-5.28-13.14-2.3l-35.39,24.86,4.04,7.76,4.75,9.12,37.45-26.31c4.25-2.98,5.28-8.9,2.3-13.14h0Z"/>
      <path class="cls-3" d="M427.27,257.94l37.04-44.01,32.04-38.06c4.63,4.03,9.01,8.33,13.13,12.88l-38.2,32.15-44.01,37.04h0ZM394.47,137.74c3.07,0,6.12.1,9.14.28l-4.22,49.03-4.93,57.31-4.93-57.31-4.22-49.03c3.03-.18,6.07-.28,9.14-.28h0ZM425.18,140.79c6.03,1.21,11.94,2.78,17.7,4.67l-16.81,46.4-19.59,54.08,10.07-56.63,8.63-48.52h0ZM463.02,153.68c5.51,2.72,10.83,5.75,15.94,9.07l-28.38,40.65-32.92,47.16,24.39-52.09,20.97-44.8h0ZM522.96,205.91c3.45,5.09,6.6,10.39,9.44,15.88l-45.67,21.38-52.09,24.39,47.16-32.92,41.15-28.72h0ZM541.03,241.87c2.02,5.81,3.7,11.77,5.03,17.87l-50.16,8.92-56.63,10.07,54.08-19.59,47.67-17.27h0ZM242.87,259.74c1.33-6.1,3.01-12.06,5.03-17.87l47.67,17.27,54.08,19.59-56.63-10.07-50.16-8.92h0ZM256.54,221.79c2.84-5.49,5.99-10.8,9.44-15.88l41.15,28.72,47.16,32.92-52.09-24.39-45.67-21.38h0ZM279.46,188.75c4.12-4.55,8.51-8.85,13.14-12.88l32.04,38.06,37.04,44.01-44.01-37.04-38.2-32.15h0ZM309.98,162.75c5.11-3.33,10.43-6.36,15.94-9.07l20.97,44.8,24.39,52.09-32.92-47.16-28.38-40.65h0ZM346.06,145.45c5.76-1.89,11.67-3.46,17.7-4.67l8.63,48.52,10.07,56.63-19.59-54.08-16.81-46.4h0Z"/>
    </g>
  </g>
</svg>