<?xml version="1.0" encoding="UTF-8"?>
<svg id="Calque_2" data-name="Calque 2" xmlns="http://www.w3.org/2000/svg" viewBox="0 0 764.79 764.79">
  <defs>
    <style>
      .cls-1 {
        fill: #115e59;
      }

      .cls-2 {
        fill: #F9FAFB;
      }
    </style>
  </defs>
  <g id="Calque_1-2" data-name="Calque 1">
    <rect class="cls-2" width="764.79" height="764.79"/>
    <g>
      <g>
        <path class="cls-1" d="M382.39,484.54c-76.93,0-139.52-62.6-139.52-139.52,0-76.94,62.59-139.52,139.52-139.52,76.93,0,139.52,62.59,139.53,139.52,0,76.93-62.59,139.52-139.53,139.53ZM382.39,238.6c-58.68,0-106.41,47.73-106.41,106.41,0,58.67,47.73,106.41,106.41,106.41,58.68,0,106.41-47.73,106.42-106.42,0-58.67-47.74-106.4-106.41-106.4Z"/>
        <path class="cls-1" d="M415.71,593.2l-13.32-125.22h-20s-20,0-20,0l-13.32,125.22c-.48,2.29-.76,4.67-.75,7.12,0,18.82,15.25,34.08,34.06,34.08,18.82,0,34.08-15.26,34.08-34.08,0-2.44-.26-4.82-.75-7.11Z"/>
      </g>
      <g>
        <path class="cls-1" d="M234.22,390.52c-1.61-5.15-2.97-10.38-4.03-15.72-3.68-.13-7.35-.25-11.16-.27v-228.57c91.68.52,143.19,34.51,155.77,43.98,2.52-.12,5.05-.19,7.59-.19h0c3,0,5.97.11,8.93.28,12.41-9.37,63.96-43.54,155.89-44.07v228.57c-4.31.02-8.49.15-12.63.31-1.07,5.35-2.43,10.6-4.05,15.75,7.8-.4,15.9-.58,24.35-.46l7.9.11V130.54l-7.67-.11c-99.26-1.5-155.37,33.84-171.99,46.22-16.62-12.38-72.77-47.67-171.99-46.22l-7.67.11v259.71l7.9-.11c7.91-.11,15.52.04,22.86.39Z"/>
        <path class="cls-1" d="M246.01,418.59h-56.4V161.9h-20.08v278.7h90.99c-5.43-6.91-10.29-14.27-14.51-22.02Z"/>
        <path class="cls-1" d="M577.46,161.9v256.68h-58.68c-4.22,7.74-9.08,15.1-14.51,22.02h90.99V161.9h-17.81Z"/>
      </g>
    </g>
  </g>
</svg>